<svg xmlns="http://www.w3.org/2000/svg" viewBox="0 0 512 512" role="img" aria-labelledby="title desc">
  <title id="title">CODE Lab icon</title>
  <desc id="desc">A stylized CODE Lab mark combining computational optimization, design, and engineering systems.</desc>
  <defs>
    <linearGradient id="codeGradient" x1="92" y1="82" x2="420" y2="430" gradientUnits="userSpaceOnUse">
      <stop offset="0" stop-color="#123f63"/>
      <stop offset="0.48" stop-color="#0b8f98"/>
      <stop offset="1" stop-color="#69727b"/>
    </linearGradient>
    <linearGradient id="orbitGradient" x1="118" y1="142" x2="394" y2="370" gradientUnits="userSpaceOnUse">
      <stop offset="0" stop-color="#0b8f98"/>
      <stop offset="1" stop-color="#123f63"/>
    </linearGradient>
    <filter id="softShadow" x="-20%" y="-20%" width="140%" height="140%">
      <feDropShadow dx="0" dy="12" stdDeviation="18" flood-color="#12263a" flood-opacity="0.13"/>
    </filter>
  </defs>
  <rect width="512" height="512" rx="92" fill="#f5f6f7"/>
  <circle cx="256" cy="244" r="178" fill="#ffffff" stroke="#d9dee3" stroke-width="4"/>
  <g filter="url(#softShadow)">
    <path d="M161 170c-47 28-73 79-67 130 6 57 51 96 108 105 27 4 56 0 81-12l-25-46c-15 7-32 9-47 6-31-5-56-26-60-58-4-29 11-60 38-76 25-15 58-15 86 4l28-43c-43-29-96-33-142-10z" fill="#123f63"/>
    <path d="M321 141c-75 0-133 46-133 105s58 105 133 105h55V141h-55zm0 53h2v104h-4c-44 0-75-21-75-52 0-30 32-52 77-52z" fill="url(#codeGradient)"/>
    <path d="M342 208h53v-50h-96v187h100v-50h-57v-20h48v-45h-48v-22z" fill="#69727b" opacity="0.95"/>
  </g>
  <g fill="none" stroke-linecap="round" stroke-linejoin="round">
    <path d="M115 317c53-92 135-135 247-129" stroke="url(#orbitGradient)" stroke-width="10" opacity="0.9"/>
    <path d="M145 363c63-35 129-43 220-22" stroke="#69727b" stroke-width="8" opacity="0.9"/>
    <path d="M132 222h55l39 38h62l45-54h49" stroke="#0b8f98" stroke-width="9"/>
  </g>
  <g>
    <circle cx="115" cy="317" r="14" fill="#123f63"/>
    <circle cx="226" cy="260" r="12" fill="#0b8f98"/>
    <circle cx="382" cy="206" r="14" fill="#123f63"/>
    <circle cx="145" cy="363" r="12" fill="#69727b"/>
    <circle cx="274" cy="334" r="11" fill="#69727b"/>
    <circle cx="365" cy="341" r="12" fill="#69727b"/>
    <circle cx="132" cy="222" r="12" fill="#0b8f98"/>
    <circle cx="333" cy="206" r="12" fill="#0b8f98"/>
  </g>
  <text x="256" y="455" text-anchor="middle" font-family="Arial, Helvetica, sans-serif" font-size="46" font-weight="800" letter-spacing="4" fill="#123f63">CODE</text>
</svg>