<svg xmlns="http://www.w3.org/2000/svg" viewBox="0 0 512 512" role="img" aria-labelledby="title desc">
  <title id="title">CoDesign Lab icon</title>
  <desc id="desc">A CoDesign Lab mark showing computational design coupling materials, structures, manufacturing, and systems.</desc>
  <defs>
    <linearGradient id="hubGradient" x1="128" y1="100" x2="384" y2="412" gradientUnits="userSpaceOnUse">
      <stop offset="0" stop-color="#123f63"/>
      <stop offset="0.52" stop-color="#0b8f98"/>
      <stop offset="1" stop-color="#68717a"/>
    </linearGradient>
    <linearGradient id="linkGradient" x1="112" y1="138" x2="400" y2="374" gradientUnits="userSpaceOnUse">
      <stop offset="0" stop-color="#0b8f98"/>
      <stop offset="1" stop-color="#123f63"/>
    </linearGradient>
    <filter id="softShadow" x="-20%" y="-20%" width="140%" height="140%">
      <feDropShadow dx="0" dy="12" stdDeviation="18" flood-color="#12263a" flood-opacity="0.13"/>
    </filter>
  </defs>
  <rect width="512" height="512" rx="92" fill="#f5f6f7"/>
  <circle cx="256" cy="244" r="178" fill="#fff" stroke="#d9dee3" stroke-width="4"/>
  <g fill="none" stroke-linecap="round" stroke-linejoin="round">
    <path d="M156 156l100 88 100-88M156 332l100-88 100 88M156 156v176M356 156v176" stroke="url(#linkGradient)" stroke-width="12"/>
    <path d="M139 244h234" stroke="#68717a" stroke-width="9" opacity="0.92"/>
    <path d="M256 118v252" stroke="#0b8f98" stroke-width="8" opacity="0.62"/>
  </g>
  <g filter="url(#softShadow)">
    <circle cx="256" cy="244" r="72" fill="url(#hubGradient)"/>
    <path d="M236 219l-26 25 26 25" fill="none" stroke="#fff" stroke-width="14" stroke-linecap="round" stroke-linejoin="round"/>
    <path d="M276 219l26 25-26 25" fill="none" stroke="#fff" stroke-width="14" stroke-linecap="round" stroke-linejoin="round"/>
    <path d="M266 208l-22 72" fill="none" stroke="#fff" stroke-width="10" stroke-linecap="round"/>
  </g>
  <g>
    <circle cx="156" cy="156" r="38" fill="#123f63"/>
    <circle cx="356" cy="156" r="38" fill="#0b8f98"/>
    <circle cx="156" cy="332" r="38" fill="#68717a"/>
    <circle cx="356" cy="332" r="38" fill="#123f63"/>
    <path d="M143 156h26M156 143v26" stroke="#fff" stroke-width="8" stroke-linecap="round"/>
    <path d="M337 156h38M337 169h26M337 143h26" stroke="#fff" stroke-width="8" stroke-linecap="round"/>
    <path d="M139 332h34M146 318h20M146 346h20" stroke="#fff" stroke-width="8" stroke-linecap="round"/>
    <path d="M338 319l36 26M374 319l-36 26" stroke="#fff" stroke-width="8" stroke-linecap="round"/>
  </g>
  <text x="256" y="455" text-anchor="middle" font-family="Arial, Helvetica, sans-serif" font-size="38" font-weight="800" letter-spacing="1.5" fill="#123f63">CoDesign</text>
</svg>
