<svg xmlns="http://www.w3.org/2000/svg" viewBox="0 0 512 512" role="img" aria-labelledby="title desc">
  <title id="title">DANCE Lab icon</title>
  <desc id="desc">A stylized DANCE Lab mark combining design automation, computation, and engineering networks.</desc>
  <defs>
    <linearGradient id="markGradient" x1="86" y1="94" x2="428" y2="428" gradientUnits="userSpaceOnUse">
      <stop offset="0" stop-color="#143f63"/>
      <stop offset="0.52" stop-color="#0f8f98"/>
      <stop offset="1" stop-color="#5f6872"/>
    </linearGradient>
    <filter id="softShadow" x="-20%" y="-20%" width="140%" height="140%">
      <feDropShadow dx="0" dy="12" stdDeviation="18" flood-color="#12263a" flood-opacity="0.14"/>
    </filter>
  </defs>
  <rect width="512" height="512" rx="92" fill="#f5f6f7"/>
  <circle cx="256" cy="256" r="184" fill="#ffffff" stroke="#d9dee3" stroke-width="4"/>
  <g filter="url(#softShadow)">
    <path d="M151 147h95c83 0 142 49 142 109s-59 109-142 109h-95V147zm62 61v96h35c45 0 76-19 76-48s-31-48-76-48h-35z" fill="url(#markGradient)"/>
    <path d="M175 366l52-158h52l53 158h-48l-9-33h-45l-9 33h-46zm64-72h27l-13-49-14 49z" fill="#143f63" opacity="0.96"/>
    <path d="M332 147h48v219h-45l-75-112v112h-48V147h45l75 114V147z" fill="#0f8f98" opacity="0.96"/>
  </g>
  <g fill="none" stroke-linecap="round" stroke-linejoin="round">
    <path d="M118 333h55l38-41h52l38 42h92" stroke="#143f63" stroke-width="12"/>
    <path d="M139 180h51l34 37h60l37-39h51" stroke="#0f8f98" stroke-width="10"/>
    <path d="M165 416l67-62h48l66 62" stroke="#6f7780" stroke-width="9"/>
  </g>
  <g>
    <circle cx="118" cy="333" r="15" fill="#143f63"/>
    <circle cx="263" cy="292" r="13" fill="#143f63"/>
    <circle cx="393" cy="334" r="15" fill="#143f63"/>
    <circle cx="139" cy="180" r="13" fill="#0f8f98"/>
    <circle cx="284" cy="217" r="12" fill="#0f8f98"/>
    <circle cx="372" cy="178" r="13" fill="#0f8f98"/>
    <circle cx="165" cy="416" r="12" fill="#6f7780"/>
    <circle cx="280" cy="354" r="12" fill="#6f7780"/>
    <circle cx="346" cy="416" r="12" fill="#6f7780"/>
  </g>
  <text x="256" y="455" text-anchor="middle" font-family="Arial, Helvetica, sans-serif" font-size="44" font-weight="800" letter-spacing="3" fill="#143f63">DANCE</text>
</svg>